<?xml version="1.0" encoding="UTF-8" standalone="no"?>
<!-- Created with Inkscape (http://www.inkscape.org/) -->

<svg
   xmlns:dc="http://purl.org/dc/elements/1.1/"
   xmlns:cc="http://creativecommons.org/ns#"
   xmlns:rdf="http://www.w3.org/1999/02/22-rdf-syntax-ns#"
   xmlns:svg="http://www.w3.org/2000/svg"
   xmlns="http://www.w3.org/2000/svg"
   xmlns:sodipodi="http://sodipodi.sourceforge.net/DTD/sodipodi-0.dtd"
   xmlns:inkscape="http://www.inkscape.org/namespaces/inkscape"
   width="744.09448819"
   height="1052.3622047"
   id="svg2"
   version="1.1"
   inkscape:version="0.48.1 r9760"
   sodipodi:docname="drawing.svg">
  <defs
     id="defs4" />
  <sodipodi:namedview
     id="base"
     pagecolor="#ffffff"
     bordercolor="#666666"
     borderopacity="1.0"
     inkscape:pageopacity="0.0"
     inkscape:pageshadow="2"
     inkscape:zoom="0.9983453"
     inkscape:cx="244.61965"
     inkscape:cy="674.5"
     inkscape:document-units="px"
     inkscape:current-layer="layer1"
     showgrid="false"
     inkscape:window-width="1366"
     inkscape:window-height="719"
     inkscape:window-x="-2"
     inkscape:window-y="-3"
     inkscape:window-maximized="1"
     showguides="true"
     inkscape:guide-bbox="true" />
  <metadata
     id="metadata7">
    <rdf:RDF>
      <cc:Work
         rdf:about="">
        <dc:format>image/svg+xml</dc:format>
        <dc:type
           rdf:resource="http://purl.org/dc/dcmitype/StillImage" />
        <dc:title></dc:title>
      </cc:Work>
    </rdf:RDF>
  </metadata>
  <g
     inkscape:label="Layer 1"
     inkscape:groupmode="layer"
     id="layer1">
    <g
       style="font-size:40px;font-style:normal;font-variant:normal;font-weight:normal;font-stretch:normal;line-height:125%;letter-spacing:0px;word-spacing:0px;fill:#000000;fill-opacity:1;stroke:none;font-family:Audiowide;-inkscape-font-specification:Audiowide"
       id="flowRoot2985"
       transform="matrix(1.8056535,0,0,2.0283652,-68.142212,-402.28778)" />
    <path
       id="path3006-0-5"
       style="font-size:40px;font-style:normal;font-variant:normal;font-weight:normal;font-stretch:normal;line-height:125%;letter-spacing:0px;word-spacing:0px;fill:#000000;fill-opacity:1;stroke:none;font-family:Audiowide;-inkscape-font-specification:Audiowide"
       d="m 570.62772,354.77317 c 4e-5,-1.63879 0.22338,-3.41415 0.67006,-5.32603 0.44674,-1.88156 1.17561,-3.64174 2.18654,-5.28051 0.98749,-1.60845 2.29237,-2.95892 3.9146,-4.05143 1.59878,-1.09254 3.5502,-1.6388 5.85425,-1.6388 l 16.54008,0 c 1.26959,0 2.64499,0.2883 4.12621,0.86493 1.45766,0.57659 2.82133,1.50221 4.0909,2.77681 1.2461,1.30496 2.29235,2.98925 3.13874,5.05291 0.84641,2.094 1.26962,4.62802 1.26962,7.60212 0,1.63878 -0.22338,3.41412 -0.67008,5.32605 -0.44671,1.91188 -1.16379,3.67205 -2.15125,5.2805 -1.01097,1.63878 -2.31586,3.00439 -3.9146,4.09696 -1.62228,1.09248 -3.58544,1.63876 -5.88954,1.63878 l -16.54318,0.0192 0.004,-11.30828 16.54008,0 c 1.24609,-2e-5 2.21004,-0.50075 2.89184,-1.50222 0.68183,-0.97115 1.02278,-2.18506 1.02276,-3.64174 2e-5,-1.54775 -0.38795,-2.76165 -1.1638,-3.64172 -0.79936,-0.84975 -1.73982,-1.27463 -2.82133,-1.27463 l -16.46955,0 c -1.24606,0 -2.21001,0.48558 -2.89186,1.4567 -0.6818,0.97114 -1.02269,2.18504 -1.02274,3.64172 l -0.0531,23.67904 c 0,0 -8.73358,0.14168 -8.62281,2.6e-4 l -0.0349,-23.77032 m -308.21132,0.67569 c 3e-5,-1.63879 0.22339,-3.41415 0.67006,-5.32603 0.44675,-1.88156 1.17561,-3.64174 2.18654,-5.28051 0.98751,-1.60845 2.29236,-2.95892 3.9146,-4.05143 1.59878,-1.09253 3.5502,-1.6388 5.85427,-1.6388 l 16.54006,0 c 1.26961,0 2.64501,0.28831 4.12621,0.86493 1.45768,0.57659 2.82133,1.50221 4.09092,2.77681 1.2461,1.30496 2.29235,2.98925 3.13873,5.05291 0.84642,2.094 1.26961,4.62802 1.26961,7.60212 0,1.63878 -0.22336,3.41412 -0.67006,5.32605 -0.44672,1.91189 -1.1638,3.67206 -2.15127,5.2805 -1.01097,1.63878 -2.31584,3.0044 -3.91461,4.09697 -1.62225,1.09247 -3.58543,1.63875 -5.88953,1.63877 l -16.54318,0.0192 0.004,-11.30829 16.54006,0 c 1.2461,-1e-5 2.21006,-0.50075 2.89186,-1.50221 0.68183,-0.97116 1.02276,-2.18507 1.02274,-3.64175 2e-5,-1.54774 -0.38793,-2.76165 -1.1638,-3.64172 -0.79936,-0.84975 -1.73982,-1.27463 -2.82133,-1.27463 l -16.46953,0 c -1.24606,0 -2.21001,0.48558 -2.89188,1.45671 -0.68178,0.97113 -1.02269,2.18504 -1.02272,3.64173 l -0.0531,23.67902 c 0,0 -8.7336,0.14168 -8.62283,2.6e-4 l -0.0349,-23.77032 m 395.62963,-2.83386 c -3e-5,1.34804 -0.22339,2.80841 -0.67006,4.38108 -0.44675,1.54775 -1.1756,2.99563 -2.18654,4.34362 -0.98751,1.3231 -2.29236,2.43395 -3.9146,3.33262 -1.5988,0.8987 -3.5502,1.34805 -5.85427,1.34803 l -16.54006,0 0,-9.24895 16.54006,0 c 1.24606,2e-5 2.21001,-0.39939 2.89188,-1.19824 0.68178,-0.82376 1.02269,-1.83479 1.02272,-3.03305 -3e-5,-1.27312 -0.38796,-2.27164 -1.16379,-2.99561 -0.75238,-0.72391 -1.66933,-1.08588 -2.75081,-1.08592 l -16.54006,0 c -1.2461,4e-5 -2.21006,0.41193 -2.89188,1.23568 -0.68183,0.79888 -1.02274,1.79741 -1.02272,2.99562 l 0,13.59259 c -2e-5,1.29812 0.37617,2.30912 1.12853,3.03306 0.77586,0.72395 1.72805,1.08591 2.8566,1.08591 l 16.46953,0 0,9.2864 -16.54006,0 c -1.26962,0 -2.64501,-0.23716 -4.1262,-0.71148 -1.45771,-0.47429 -2.82134,-1.23568 -4.09093,-2.28414 -1.2461,-1.07343 -2.29235,-2.45889 -3.13875,-4.15641 -0.8464,-1.72248 -1.26959,-3.8069 -1.26959,-6.25334 l 0,-13.66747 c 0,-1.34801 0.22336,-2.79589 0.67006,-4.34363 0.44672,-1.57268 1.1638,-3.02056 2.15127,-4.34364 1.01097,-1.34799 2.31585,-2.47135 3.91461,-3.37006 1.62225,-0.89865 3.58543,-1.34798 5.88953,-1.34804 l 16.54006,0 c 1.26957,6e-5 2.63322,0.2372 4.09094,0.71147 1.48116,0.47434 2.84481,1.24821 4.09093,2.32161 1.26957,1.04849 2.32756,2.43395 3.17401,4.15638 0.84635,1.69757 1.26956,3.76953 1.26959,6.21591 m -91.48879,13.40535 c -4e-5,1.67256 -0.19989,3.18284 -0.59954,4.53086 -0.39973,1.32307 -0.92873,2.49636 -1.587,3.51985 -0.65834,0.99853 -1.42246,1.85977 -2.29233,2.5837 -0.86995,0.69899 -1.78688,1.27315 -2.75079,1.72248 -0.94049,0.44935 -1.90444,0.78636 -2.89188,1.01103 -0.96399,0.1997 -1.88091,0.29957 -2.75079,0.29957 l -16.54007,0 c -1.26961,0 -2.65677,-0.23716 -4.16147,-0.71148 -1.50473,-0.47429 -2.90364,-1.24817 -4.19674,-2.3216 -1.26959,-1.09838 -2.33935,-2.50882 -3.20926,-4.23129 -0.8464,-1.74743 -1.26961,-3.8818 -1.26961,-6.40312 l 0,-13.18068 c 0,-2.49632 0.42321,-4.60572 1.26961,-6.32823 0.86991,-1.7474 1.93967,-3.15784 3.20926,-4.23129 1.2931,-1.09836 2.69201,-1.88471 4.19674,-2.35905 1.5047,-0.47427 2.89186,-0.71141 4.16147,-0.71147 l 16.54007,0 c 2.35107,6e-5 4.34951,0.44939 5.99533,1.34804 1.64573,0.89871 2.97411,2.03456 3.98513,3.40749 1.01093,1.34808 1.73979,2.82091 2.18654,4.41853 0.47018,1.59769 0.70529,3.08302 0.70533,4.45598 l 0,13.18068 m -9.16933,-13.1058 c -4e-5,-1.34799 -0.31743,-2.34652 -0.95221,-2.99561 -0.63483,-0.649 -1.55176,-0.97352 -2.75079,-0.97357 l -16.46954,0 c -1.22259,5e-5 -2.15128,0.33705 -2.78607,1.01101 -0.63482,0.64909 -0.95221,1.61018 -0.9522,2.88329 l 0,13.18068 c -10e-6,1.27315 0.31738,2.24672 0.9522,2.92073 0.63479,0.67401 1.56348,1.01103 2.78607,1.01101 l 16.46954,0 c 1.24605,2e-5 2.17473,-0.337 2.78605,-1.01101 0.61127,-0.67401 0.91691,-1.64758 0.91695,-2.92073 l 0,-13.1058 m -36.0637,26.77329 -24.863,0 c -1.26961,0 -2.65677,-0.23716 -4.16147,-0.71148 -1.50473,-0.47429 -2.90364,-1.24817 -4.19674,-2.3216 -1.26959,-1.09838 -2.33935,-2.50882 -3.20926,-4.23129 -0.8464,-1.74743 -1.26961,-3.8818 -1.26961,-6.40312 l 0,-13.18068 c 0,-0.92362 0.0941,-1.8972 0.28213,-2.92073 0.21161,-1.02347 0.52901,-2.03448 0.95221,-3.03305 0.4232,-1.02347 0.96395,-1.99704 1.62228,-2.92073 0.68181,-0.9236 1.49293,-1.73492 2.43338,-2.43393 0.96395,-0.69893 2.06898,-1.26061 3.31508,-1.68501 1.24608,-0.42436 2.65674,-0.63653 4.232,-0.63659 l 24.863,0 0,9.73574 -24.863,0 c -1.19908,5e-5 -2.11601,0.32457 -2.75081,0.97357 -0.6113,0.64909 -0.91694,1.64762 -0.91693,2.99561 l 0,13.1058 c -10e-6,1.27315 0.31738,2.24672 0.9522,2.92073 0.63479,0.67401 1.56348,1.01103 2.78607,1.01101 l 24.79247,0 0,9.73575 m -39.7667,-13.66749 c -4e-5,1.67256 -0.19989,3.18284 -0.59954,4.53086 -0.39971,1.32307 -0.92872,2.49636 -1.58698,3.51985 -0.65836,0.99853 -1.42246,1.85977 -2.29235,2.5837 -0.86995,0.69899 -1.78688,1.27315 -2.75079,1.72248 -0.94048,0.44935 -1.90444,0.78636 -2.89188,1.01103 -0.96399,0.1997 -1.88091,0.29957 -2.75079,0.29957 l -24.82773,0 0,-9.73575 24.75719,0 c 1.24606,2e-5 2.18652,-0.337 2.82133,-1.01101 0.63478,-0.67401 0.95217,-1.64758 0.95221,-2.92073 -0.11755,-2.59618 -1.35193,-3.89427 -3.703,-3.89429 l -14.21248,0 c -2.02195,2e-5 -3.73826,-0.37442 -5.14893,-1.12335 -1.41066,-0.74888 -2.56271,-1.685 -3.45613,-2.80839 -0.86991,-1.12334 -1.50472,-2.33406 -1.9044,-3.63217 -0.37617,-1.29807 -0.56427,-2.5088 -0.56427,-3.63217 0,-2.17179 0.36442,-3.99413 1.09327,-5.46701 0.72884,-1.49777 1.64578,-2.70849 2.75081,-3.63218 1.105,-0.9236 2.30406,-1.58513 3.59718,-1.98457 1.2931,-0.42436 2.50394,-0.63653 3.63247,-0.63659 l 22.53541,0 0,9.73574 -22.46486,0 c -0.47025,5e-5 -0.84642,0.0625 -1.12853,0.18732 -0.25865,0.0999 -0.4585,0.24965 -0.59955,0.44932 -0.11755,0.17485 -0.1881,0.37449 -0.21159,0.59913 -0.0235,0.19973 -0.0352,0.39945 -0.0352,0.59912 0.0235,0.39945 0.0941,0.71149 0.21159,0.93612 0.11754,0.2247 0.25862,0.38697 0.42321,0.4868 0.18807,0.0999 0.38792,0.16239 0.59953,0.18712 0.23509,3e-5 0.45845,3e-5 0.67006,0 l 14.21248,0 c 2.35107,3e-5 4.34951,0.44937 5.99533,1.34803 1.64574,0.8987 2.97411,2.03455 3.98513,3.4075 1.01095,1.34806 1.73978,2.8209 2.18654,4.41854 0.47017,1.59766 0.70528,3.08299 0.70532,4.45596 m -41.98854,-35.1235 -9.16934,0 0,-8.79962 9.16934,0 0,8.79962 m 0,48.79101 -9.16934,0 0,-40.47821 9.16934,0 0,40.47821 m -12.3645,-40.47821 -16.46953,19.09703 18.55025,21.38118 -12.62545,0 -12.20228,-14.11684 -12.20226,14.11684 -12.66074,0 18.51501,-21.45607 -16.399,-19.02214 12.55492,0 10.12154,11.72035 10.19207,-11.72035 12.62547,0 m -46.57317,27.07284 c -3e-5,1.34803 -0.22339,2.8084 -0.67006,4.38107 -0.44675,1.54775 -1.17561,2.99563 -2.18654,4.34364 -0.98751,1.32308 -2.29236,2.43393 -3.9146,3.33262 -1.59878,0.89868 -3.5502,1.34804 -5.85427,1.34804 l -16.54006,0 c -1.26961,0 -2.64501,-0.23716 -4.1262,-0.71148 -1.45769,-0.47429 -2.82134,-1.23568 -4.09093,-2.28414 -1.2461,-1.07343 -2.29235,-2.45889 -3.13873,-4.15641 -0.84642,-1.72248 -1.26961,-3.8069 -1.26961,-6.25334 0,-1.34801 0.22336,-2.80838 0.67006,-4.38109 0.44672,-1.57267 1.1638,-3.02055 2.15127,-4.34362 1.01097,-1.34802 2.31584,-2.47136 3.91461,-3.37007 1.62225,-0.89865 3.58543,-1.348 5.88953,-1.34802 l 16.54006,0 0,9.28639 -16.54006,0 c -1.2461,2e-5 -2.21006,0.41191 -2.89186,1.23569 -0.68183,0.79886 -1.02276,1.79738 -1.02274,2.99561 -2e-5,1.27314 0.38793,2.27168 1.1638,2.99561 0.79936,0.69899 1.73982,1.04847 2.82133,1.04847 l 16.46953,0 c 1.24606,0 2.21001,-0.39941 2.89188,-1.19825 0.68178,-0.79883 1.02269,-1.79736 1.02272,-2.99561 l 0,-13.59258 c -3e-5,-1.27312 -0.37621,-2.28413 -1.12853,-3.03306 -0.72887,-0.74888 -1.65756,-1.12332 -2.78607,-1.12336 l -20.13726,0 0,-9.24895 20.13726,0 c 1.26957,6e-5 2.63322,0.2372 4.09094,0.71147 1.48116,0.47434 2.84481,1.24821 4.09093,2.32161 1.26957,1.04849 2.32756,2.43395 3.17401,4.15638 0.84635,1.69757 1.26956,3.76953 1.26959,6.21591 l 0,13.66747 m -38.77922,-17.3371 -20.631,0 c -1.2461,5e-5 -2.18656,0.33705 -2.82134,1.01101 -0.63481,0.64909 -0.95221,1.61018 -0.95221,2.88329 l 0,26.84817 -9.16932,0 0,-26.84817 c 0,-1.67252 0.19983,-3.17032 0.59953,-4.49342 0.39968,-1.32303 0.92868,-2.48383 1.587,-3.4824 0.68182,-1.02345 1.45767,-1.8847 2.3276,-2.5837 0.86991,-0.72392 1.77508,-1.31056 2.71554,-1.75993 0.96393,-0.4493 1.9279,-0.77384 2.89186,-0.97356 0.98746,-0.22464 1.90439,-0.33697 2.75081,-0.33703 l 20.70153,0 0,9.73574 m -83.83594,17.07498 c -3e-5,1.67256 -0.19988,3.18284 -0.59953,4.53086 -0.39973,1.32307 -0.92874,2.49636 -1.587,3.51985 -0.65835,0.99853 -1.42246,1.85977 -2.29234,2.5837 -0.86994,0.69899 -1.78687,1.27315 -2.75078,1.72248 -0.9405,0.44935 -1.90444,0.78636 -2.89188,1.01103 -0.96399,0.1997 -1.88092,0.29957 -2.75079,0.29957 l -16.54007,0 c -1.26961,0 -2.65677,-0.23716 -4.16148,-0.71148 -1.50472,-0.47429 -2.90363,-1.24817 -4.19673,-2.3216 -1.26959,-1.09838 -2.33935,-2.50882 -3.20926,-4.23129 -0.8464,-1.74743 -1.26961,-3.8818 -1.26961,-6.40312 l 0,-13.18068 c 0,-2.49632 0.42321,-4.60572 1.26961,-6.32823 0.86991,-1.7474 1.93967,-3.15784 3.20926,-4.23129 1.2931,-1.09836 2.69201,-1.88471 4.19673,-2.35905 1.50471,-0.47427 2.89187,-0.71141 4.16148,-0.71147 l 16.54007,0 c 2.35107,6e-5 4.34951,0.44939 5.99533,1.34804 1.64573,0.89871 2.97411,2.03456 3.98513,3.40749 1.01093,1.34808 1.73978,2.82091 2.18654,4.41853 0.47017,1.59769 0.70529,3.08302 0.70532,4.45598 l 0,13.18068 m -9.16932,-13.1058 c -4e-5,-1.34799 -0.31744,-2.34652 -0.95221,-2.99561 -0.63483,-0.649 -1.55176,-0.97352 -2.75079,-0.97357 l -16.46955,0 c -1.22259,5e-5 -2.15127,0.33705 -2.78606,1.01101 -0.63482,0.64909 -0.95222,1.61018 -0.9522,2.88329 l 0,13.18068 c -2e-5,1.27315 0.31738,2.24672 0.9522,2.92073 0.63479,0.67401 1.56347,1.01103 2.78606,1.01101 l 16.46955,0 c 1.24605,2e-5 2.17473,-0.337 2.78605,-1.01101 0.61127,-0.67401 0.91691,-1.64758 0.91695,-2.92073 l 0,-13.1058 m -36.45163,13.1058 c -6e-5,1.67256 -0.19989,3.18284 -0.59953,4.53086 -0.39974,1.32307 -0.92874,2.49636 -1.58701,3.51985 -0.65836,0.99853 -1.42246,1.85977 -2.29233,2.5837 -0.86995,0.69899 -1.78689,1.27315 -2.75081,1.72248 -0.94047,0.44935 -1.90444,0.78636 -2.89186,1.01103 -0.96398,0.1997 -1.88093,0.29957 -2.7508,0.29957 l -16.54008,0 c -1.26961,0 -2.65676,-0.23716 -4.16145,-0.71148 -1.50472,-0.47429 -2.90364,-1.24817 -4.19674,-2.3216 -1.26961,-1.09838 -2.33937,-2.50882 -3.20928,-4.23129 -0.8464,-1.74743 -1.26959,-3.8818 -1.26959,-6.40312 l 0,-13.18068 c 0,-2.49632 0.42319,-4.60572 1.26959,-6.32823 0.86991,-1.7474 1.93967,-3.15784 3.20928,-4.23129 1.2931,-1.09836 2.69202,-1.88471 4.19674,-2.35905 1.50469,-0.47427 2.89184,-0.71141 4.16145,-0.71147 l 16.54008,0 c 2.35108,6e-5 4.34951,0.44939 5.99533,1.34804 1.64574,0.89871 2.97412,2.03456 3.98513,3.40749 1.01095,1.34808 1.73978,2.82091 2.18654,4.41853 0.47017,1.59769 0.70528,3.08302 0.70534,4.45598 l 0,13.18068 m -9.16934,-13.1058 c -4e-5,-1.34799 -0.31744,-2.34652 -0.9522,-2.99561 -0.63483,-0.649 -1.55178,-0.97352 -2.7508,-0.97357 l -16.46953,0 c -1.22259,5e-5 -2.15129,0.33705 -2.78607,1.01101 -0.63481,0.64909 -0.95221,1.61018 -0.95221,2.88329 l 0,13.18068 c 0,1.27315 0.3174,2.24672 0.95221,2.92073 0.63478,0.67401 1.56348,1.01103 2.78607,1.01101 l 16.46953,0 c 1.24606,2e-5 2.17474,-0.337 2.78607,-1.01101 0.61125,-0.67401 0.91689,-1.64758 0.91693,-2.92073 l 0,-13.1058 m -35.60523,-12.49918 c 0.35262,0.87378 0.45841,1.79743 0.31739,2.77094 -0.1412,0.94866 -0.51728,1.75998 -1.12853,2.43393 l -30.2588,35.83499 531.70519,0 0,9.73575 -542.03831,0 c -0.89344,0 -1.72808,-0.26212 -2.50394,-0.78636 -0.75236,-0.54919 -1.31663,-1.26065 -1.6928,-2.13437 -0.3997,-0.87372 -0.529,-1.78488 -0.38794,-2.73349 0.16449,-0.9486 0.54075,-1.7724 1.12853,-2.47139 l 30.32935,-35.83498 -31.06994,0 0,-9.73574 41.40306,0 c 0.89338,6e-5 1.71627,0.27465 2.46867,0.8238 0.77582,0.52429 1.35184,1.22326 1.72807,2.09692 m -50.17036,37.10812 c -5e-5,1.94716 -0.31745,3.75701 -0.95221,5.42954 -0.63485,1.67257 -1.52827,3.12045 -2.68026,4.34365 -1.12858,1.22321 -2.48047,2.1843 -4.05567,2.88327 -1.57528,0.674 -3.29159,1.01103 -5.14893,1.01103 l -15.552604,0 0,-9.73575 15.552604,0 c 1.12849,2e-5 2.01016,-0.337 2.645,-1.011 0.63476,-0.69898 0.95216,-1.67255 0.9522,-2.92074 l 0,-40.02884 9.23987,0 0,40.02884"
       inkscape:connector-curvature="0"
       inkscape:export-filename="/home/sergio/Workspace/Projects/Production/JZoopraxiscope/Webpage/gh-pages/images/logo.png"
       inkscape:export-xdpi="90"
       inkscape:export-ydpi="90" />
  </g>
</svg>
